<mxfile host="app.diagrams.net" modified="2022-11-14T17:41:49.596Z" agent="5.0 (Windows NT 10.0; Win64; x64) AppleWebKit/537.36 (KHTML, like Gecko) Chrome/106.0.0.0 Safari/537.36 OPR/92.0.0.0" etag="zNbssgMLyIsdWy8sirMi" version="20.5.3" type="github">
  <diagram id="CzbH3OlszAmd5ryFMdcJ" name="Pagina-1">
    <mxGraphModel dx="953" dy="527" grid="1" gridSize="10" guides="1" tooltips="1" connect="1" arrows="1" fold="1" page="1" pageScale="1" pageWidth="827" pageHeight="1169" math="0" shadow="0">
      <root>
        <mxCell id="0" />
        <mxCell id="1" parent="0" />
        <mxCell id="vhbAsbXVGM4gu8aa0VGT-1" value="settings" style="shape=folder;fontStyle=1;spacingTop=10;tabWidth=30;tabHeight=10;tabPosition=left;html=1;" vertex="1" parent="1">
          <mxGeometry x="314" y="320" width="75" height="40" as="geometry" />
        </mxCell>
        <mxCell id="vhbAsbXVGM4gu8aa0VGT-2" value="&lt;b&gt;ColorHandler&lt;/b&gt;" style="html=1;" vertex="1" parent="1">
          <mxGeometry x="219" y="210" width="90" height="30" as="geometry" />
        </mxCell>
        <mxCell id="vhbAsbXVGM4gu8aa0VGT-3" value="&amp;lt;&amp;lt;abstract&amp;gt;&amp;gt;&lt;br&gt;&lt;b&gt;DynamicGameBoard&lt;/b&gt;" style="html=1;" vertex="1" parent="1">
          <mxGeometry x="265" y="90" width="130" height="40" as="geometry" />
        </mxCell>
        <mxCell id="vhbAsbXVGM4gu8aa0VGT-4" value="" style="shape=requiredInterface;html=1;verticalLabelPosition=bottom;sketch=0;rotation=0;aspect=fixed;" vertex="1" parent="1">
          <mxGeometry x="160" y="214" width="11" height="22" as="geometry" />
        </mxCell>
        <mxCell id="vhbAsbXVGM4gu8aa0VGT-5" value="ILogic" style="text;html=1;strokeColor=none;fillColor=none;align=center;verticalAlign=middle;whiteSpace=wrap;rounded=0;" vertex="1" parent="1">
          <mxGeometry x="130" y="190" width="60" height="30" as="geometry" />
        </mxCell>
        <mxCell id="vhbAsbXVGM4gu8aa0VGT-6" value="&lt;b&gt;TimelineBuilder&lt;/b&gt;" style="html=1;" vertex="1" parent="1">
          <mxGeometry x="350" y="210" width="120" height="30" as="geometry" />
        </mxCell>
        <mxCell id="vhbAsbXVGM4gu8aa0VGT-7" value="" style="endArrow=open;endSize=12;dashed=1;html=1;rounded=0;exitX=0.5;exitY=0;exitDx=0;exitDy=0;entryX=0.5;entryY=1;entryDx=0;entryDy=0;" edge="1" parent="1" source="vhbAsbXVGM4gu8aa0VGT-2" target="vhbAsbXVGM4gu8aa0VGT-3">
          <mxGeometry x="-0.4425" y="-39" width="160" relative="1" as="geometry">
            <mxPoint x="200" y="264.9999999999999" as="sourcePoint" />
            <mxPoint x="120" y="264.9999999999999" as="targetPoint" />
            <mxPoint as="offset" />
            <Array as="points">
              <mxPoint x="264" y="180" />
              <mxPoint x="330" y="180" />
            </Array>
          </mxGeometry>
        </mxCell>
        <mxCell id="vhbAsbXVGM4gu8aa0VGT-8" value="" style="endArrow=none;html=1;rounded=0;exitX=0;exitY=0.5;exitDx=0;exitDy=0;entryX=1;entryY=0.5;entryDx=0;entryDy=0;entryPerimeter=0;" edge="1" parent="1" source="vhbAsbXVGM4gu8aa0VGT-2" target="vhbAsbXVGM4gu8aa0VGT-4">
          <mxGeometry width="50" height="50" relative="1" as="geometry">
            <mxPoint x="320" y="280" as="sourcePoint" />
            <mxPoint x="150" y="225" as="targetPoint" />
          </mxGeometry>
        </mxCell>
        <mxCell id="vhbAsbXVGM4gu8aa0VGT-9" value="" style="shape=requiredInterface;html=1;verticalLabelPosition=bottom;sketch=0;rotation=-180;aspect=fixed;" vertex="1" parent="1">
          <mxGeometry x="530" y="214" width="11" height="22" as="geometry" />
        </mxCell>
        <mxCell id="vhbAsbXVGM4gu8aa0VGT-10" value="ILogic" style="text;html=1;strokeColor=none;fillColor=none;align=center;verticalAlign=middle;whiteSpace=wrap;rounded=0;" vertex="1" parent="1">
          <mxGeometry x="500" y="190" width="60" height="30" as="geometry" />
        </mxCell>
        <mxCell id="vhbAsbXVGM4gu8aa0VGT-11" value="" style="endArrow=none;html=1;rounded=0;entryX=1;entryY=0.5;entryDx=0;entryDy=0;entryPerimeter=0;exitX=1;exitY=0.5;exitDx=0;exitDy=0;" edge="1" parent="1" source="vhbAsbXVGM4gu8aa0VGT-6" target="vhbAsbXVGM4gu8aa0VGT-9">
          <mxGeometry width="50" height="50" relative="1" as="geometry">
            <mxPoint x="320" y="280" as="sourcePoint" />
            <mxPoint x="370" y="230" as="targetPoint" />
          </mxGeometry>
        </mxCell>
        <mxCell id="vhbAsbXVGM4gu8aa0VGT-12" value="" style="endArrow=none;dashed=1;html=1;rounded=0;exitX=0.5;exitY=0;exitDx=0;exitDy=0;" edge="1" parent="1" source="vhbAsbXVGM4gu8aa0VGT-6">
          <mxGeometry width="50" height="50" relative="1" as="geometry">
            <mxPoint x="320" y="280" as="sourcePoint" />
            <mxPoint x="330" y="180" as="targetPoint" />
            <Array as="points">
              <mxPoint x="410" y="180" />
            </Array>
          </mxGeometry>
        </mxCell>
        <mxCell id="vhbAsbXVGM4gu8aa0VGT-13" value="" style="endArrow=open;endSize=12;dashed=1;html=1;rounded=0;exitX=0.5;exitY=1;exitDx=0;exitDy=0;entryX=0;entryY=0;entryDx=15;entryDy=0;entryPerimeter=0;" edge="1" parent="1" source="vhbAsbXVGM4gu8aa0VGT-2" target="vhbAsbXVGM4gu8aa0VGT-1">
          <mxGeometry x="-0.4425" y="-39" width="160" relative="1" as="geometry">
            <mxPoint x="274" y="220" as="sourcePoint" />
            <mxPoint x="340" y="130" as="targetPoint" />
            <mxPoint as="offset" />
            <Array as="points">
              <mxPoint x="264" y="270" />
              <mxPoint x="329" y="270" />
            </Array>
          </mxGeometry>
        </mxCell>
        <mxCell id="vhbAsbXVGM4gu8aa0VGT-14" value="" style="endArrow=none;dashed=1;html=1;rounded=0;exitX=0.5;exitY=1;exitDx=0;exitDy=0;" edge="1" parent="1" source="vhbAsbXVGM4gu8aa0VGT-6">
          <mxGeometry width="50" height="50" relative="1" as="geometry">
            <mxPoint x="420" y="220" as="sourcePoint" />
            <mxPoint x="330" y="270" as="targetPoint" />
            <Array as="points">
              <mxPoint x="410" y="270" />
            </Array>
          </mxGeometry>
        </mxCell>
        <mxCell id="vhbAsbXVGM4gu8aa0VGT-15" value="utilities" style="shape=umlFrame;whiteSpace=wrap;html=1;width=60;height=20;" vertex="1" parent="1">
          <mxGeometry x="200" y="160" width="290" height="130" as="geometry" />
        </mxCell>
      </root>
    </mxGraphModel>
  </diagram>
</mxfile>
